<svg width="131" height="23" viewBox="0 0 131 23" fill="none" xmlns="http://www.w3.org/2000/svg">
<path d="M42.1815 6.91085L39.2079 15.2549C39.1942 15.2952 39.1674 15.3299 39.1317 15.3533C39.0959 15.3767 39.0533 15.3876 39.0106 15.3843H38.7853C38.7425 15.3859 38.7001 15.3744 38.6641 15.3513C38.6281 15.3281 38.6003 15.2945 38.5843 15.2549L36.3551 9.4029L34.1295 15.2549C34.1147 15.2945 34.0876 15.3283 34.0521 15.3516C34.0166 15.3748 33.9746 15.3863 33.9322 15.3843H33.7032C33.6607 15.3866 33.6185 15.3753 33.583 15.352C33.5474 15.3287 33.5204 15.2947 33.5059 15.2549L30.5323 6.91377C30.4867 6.78446 30.536 6.70409 30.6626 6.70409H31.5829C31.6262 6.69974 31.6698 6.71018 31.7063 6.73369C31.7428 6.7572 31.7702 6.79238 31.7839 6.8334L33.9035 13.1508L36.0584 7.36528C36.0738 7.32544 36.1016 7.29148 36.1377 7.26825C36.1738 7.24502 36.2164 7.23372 36.2594 7.23596H36.453C36.4955 7.23383 36.5375 7.24522 36.573 7.26849C36.6085 7.29175 36.6356 7.32566 36.6503 7.36528L38.8692 13.1508L40.9395 6.8334C40.9532 6.79238 40.9805 6.7572 41.0171 6.73369C41.0536 6.71018 41.0971 6.69974 41.1405 6.70409H42.0468C42.1771 6.70409 42.2264 6.78446 42.1807 6.91085" fill="#ADADAD"/>
<path d="M55.1271 10.9745C55.1188 11.8339 54.8544 12.6716 54.3673 13.3822C53.8801 14.0928 53.192 14.6444 52.3895 14.9676C51.587 15.2908 50.7061 15.3711 49.8578 15.1984C49.0094 15.0257 48.2315 14.6078 47.622 13.9972C47.0125 13.3866 46.5988 12.6107 46.4329 11.7672C46.2669 10.9237 46.3562 10.0503 46.6895 9.25707C47.0228 8.46385 47.5852 7.78624 48.3059 7.30959C49.0265 6.83295 49.8732 6.57859 50.7392 6.57855C51.3212 6.57043 51.899 6.6789 52.4378 6.89748C52.9766 7.11605 53.4655 7.44023 53.8751 7.85063C54.2847 8.26103 54.6067 8.74922 54.8219 9.28597C55.037 9.82273 55.1408 10.397 55.1271 10.9745V10.9745ZM53.9101 10.9745C53.9101 8.95151 52.5805 7.55827 50.7392 7.55827C48.8979 7.55827 47.5683 8.95151 47.5683 10.9745C47.5683 12.9975 48.8979 14.3908 50.7392 14.3908C52.5805 14.3908 53.9101 12.9975 53.9101 10.9745Z" fill="#ADADAD"/>
<path d="M66.7461 14.8974C66.7741 14.9297 66.7917 14.9695 66.7964 15.0118C66.8011 15.0541 66.7928 15.0969 66.7725 15.1344C66.7523 15.1719 66.721 15.2024 66.6829 15.2219C66.6448 15.2415 66.6016 15.2491 66.5591 15.2437H65.7301C65.7031 15.2429 65.6768 15.2355 65.6534 15.2221C65.63 15.2087 65.6103 15.1898 65.5961 15.167L63.5156 12.0518H61.2797V15.0691C61.2791 15.1155 61.2603 15.1597 61.2273 15.1925C61.1943 15.2253 61.1497 15.2439 61.103 15.2445H60.2931C60.2466 15.2437 60.2022 15.225 60.1693 15.1922C60.1365 15.1595 60.1178 15.1153 60.1172 15.0691V6.87847C60.1179 6.83232 60.1367 6.78827 60.1695 6.75556C60.2023 6.72286 60.2466 6.70406 60.2931 6.70312H63.478C65.7073 6.70312 66.8079 7.8655 66.8079 9.37709C66.8215 9.97774 66.6181 10.5634 66.2345 11.0282C65.8509 11.493 65.3124 11.8063 64.7163 11.9115L66.7461 14.8974ZM63.2505 11.0721C65.0035 11.0721 65.5924 10.351 65.5924 9.37782C65.5924 8.40467 65.0035 7.68358 63.2505 7.68358H61.2789V11.0721H63.2505Z" fill="#ADADAD"/>
<path d="M80.4358 6.56747H80.7001C80.7237 6.56597 80.7474 6.56948 80.7695 6.57776C80.7916 6.58604 80.8117 6.59891 80.8284 6.6155C80.8451 6.63209 80.8581 6.65203 80.8664 6.67398C80.8748 6.69593 80.8783 6.7194 80.8768 6.74282V15.0716C80.8783 15.095 80.8748 15.1185 80.8664 15.1404C80.8581 15.1624 80.8451 15.1823 80.8284 15.1989C80.8117 15.2155 80.7916 15.2283 80.7695 15.2366C80.7474 15.2449 80.7237 15.2484 80.7001 15.2469H79.8903C79.8667 15.2484 79.843 15.2449 79.8209 15.2366C79.7988 15.2283 79.7787 15.2155 79.762 15.1989C79.7452 15.1823 79.7323 15.1624 79.7239 15.1404C79.7156 15.1185 79.7121 15.095 79.7136 15.0716V9.15889L76.4507 13.8456C76.44 13.8688 76.4228 13.8884 76.4012 13.9022C76.3796 13.916 76.3545 13.9233 76.3288 13.9233C76.3031 13.9233 76.278 13.916 76.2564 13.9022C76.2348 13.8884 76.2177 13.8688 76.207 13.8456L72.9448 9.15889V15.0708C72.9463 15.0943 72.9428 15.1177 72.9344 15.1397C72.9261 15.1616 72.9131 15.1816 72.8964 15.1982C72.8797 15.2147 72.8596 15.2276 72.8375 15.2359C72.8154 15.2442 72.7917 15.2477 72.7681 15.2462H71.9583C71.9347 15.2477 71.911 15.2442 71.8889 15.2359C71.8668 15.2276 71.8467 15.2147 71.83 15.1982C71.8133 15.1816 71.8003 15.1616 71.7919 15.1397C71.7836 15.1177 71.7801 15.0943 71.7816 15.0708V6.74209C71.7801 6.71867 71.7836 6.6952 71.7919 6.67325C71.8003 6.6513 71.8133 6.63136 71.83 6.61477C71.8467 6.59818 71.8668 6.58531 71.8889 6.57703C71.911 6.56875 71.9347 6.56524 71.9583 6.56674H72.2196C72.2635 6.5669 72.3067 6.57787 72.3452 6.59865C72.3838 6.61944 72.4165 6.64939 72.4405 6.68583L76.3277 12.0725L80.2179 6.68583C80.2406 6.64957 80.2723 6.61963 80.3099 6.5988C80.3475 6.57798 80.3898 6.56695 80.4329 6.56674" fill="#ADADAD"/>
<path d="M93.9729 6.87847V15.0684C93.9722 15.1147 93.9533 15.1588 93.9203 15.1916C93.8874 15.2243 93.8429 15.243 93.7962 15.2437H92.9864C92.9398 15.243 92.8953 15.2243 92.8623 15.1916C92.8293 15.1588 92.8105 15.1147 92.8097 15.0684V11.3373H87.4523V15.0684C87.4515 15.1147 87.4327 15.1588 87.3997 15.1916C87.3667 15.2243 87.3222 15.243 87.2756 15.2437H86.4657C86.4191 15.243 86.3746 15.2243 86.3417 15.1916C86.3087 15.1588 86.2898 15.1147 86.2891 15.0684V6.87847C86.2898 6.8322 86.3087 6.78804 86.3417 6.75531C86.3746 6.72259 86.4191 6.70388 86.4657 6.70312H87.2756C87.3222 6.70388 87.3667 6.72259 87.3997 6.75531C87.4327 6.78804 87.4515 6.8322 87.4523 6.87847V10.3575H92.8097V6.87847C92.8105 6.8322 92.8293 6.78804 92.8623 6.75531C92.8953 6.72259 92.9398 6.70388 92.9864 6.70312H93.7962C93.8429 6.70388 93.8874 6.72259 93.9203 6.75531C93.9533 6.78804 93.9722 6.8322 93.9729 6.87847Z" fill="#ADADAD"/>
<path d="M107.736 10.9745C107.728 11.8339 107.464 12.6716 106.977 13.3822C106.489 14.0928 105.801 14.6444 104.999 14.9676C104.196 15.2908 103.316 15.3711 102.467 15.1984C101.619 15.0257 100.841 14.6078 100.231 13.9972C99.6219 13.3866 99.2082 12.6107 99.0422 11.7672C98.8763 10.9237 98.9656 10.0503 99.2989 9.25707C99.6322 8.46385 100.195 7.78624 100.915 7.30959C101.636 6.83295 102.483 6.57859 103.349 6.57855C103.931 6.57043 104.508 6.6789 105.047 6.89748C105.586 7.11605 106.075 7.44023 106.484 7.85063C106.894 8.26103 107.216 8.74922 107.431 9.28597C107.646 9.82273 107.75 10.397 107.736 10.9745V10.9745ZM106.519 10.9745C106.519 8.95151 105.19 7.55827 103.349 7.55827C101.507 7.55827 100.178 8.95151 100.178 10.9745C100.178 12.9975 101.507 14.3908 103.349 14.3908C105.19 14.3908 106.519 12.9975 106.519 10.9745Z" fill="#ADADAD"/>
<path d="M118.818 14.4386V15.0684C118.82 15.0918 118.816 15.1153 118.808 15.1372C118.799 15.1592 118.786 15.1791 118.77 15.1957C118.753 15.2123 118.733 15.2252 118.711 15.2335C118.689 15.2417 118.665 15.2452 118.641 15.2437H112.903C112.857 15.243 112.812 15.2243 112.779 15.1916C112.746 15.1588 112.727 15.1147 112.727 15.0684V6.87847C112.727 6.8322 112.746 6.78804 112.779 6.75531C112.812 6.72259 112.857 6.70388 112.903 6.70312H113.713C113.76 6.70406 113.804 6.72286 113.837 6.75556C113.87 6.78827 113.888 6.83232 113.889 6.87847V14.2633H118.644C118.667 14.2618 118.691 14.2653 118.713 14.2736C118.735 14.2819 118.755 14.2947 118.772 14.3113C118.789 14.3279 118.802 14.3478 118.81 14.3698C118.818 14.3918 118.822 14.4152 118.82 14.4386" fill="#ADADAD"/>
<path d="M130.003 14.439V15.0687C130.005 15.0922 130.001 15.1156 129.993 15.1376C129.985 15.1595 129.972 15.1795 129.955 15.1961C129.938 15.2127 129.918 15.2255 129.896 15.2338C129.874 15.2421 129.85 15.2456 129.827 15.2441H123.63C123.583 15.2433 123.539 15.2246 123.506 15.1919C123.473 15.1592 123.454 15.115 123.453 15.0687V6.87881C123.454 6.83254 123.473 6.78837 123.506 6.75565C123.539 6.72293 123.583 6.70422 123.63 6.70346H129.686C129.71 6.70196 129.733 6.70547 129.755 6.71375C129.777 6.72203 129.798 6.73489 129.814 6.75149C129.831 6.76808 129.844 6.78802 129.852 6.80997C129.861 6.83192 129.864 6.85539 129.863 6.87881V7.50858C129.864 7.53199 129.861 7.55546 129.852 7.57741C129.844 7.59937 129.831 7.6193 129.814 7.6359C129.798 7.65249 129.777 7.66535 129.755 7.67363C129.733 7.68191 129.71 7.68542 129.686 7.68392H124.614V10.3579H129.122C129.145 10.3564 129.169 10.3598 129.19 10.3679C129.212 10.376 129.232 10.3885 129.249 10.4047C129.265 10.4209 129.278 10.4404 129.287 10.4619C129.295 10.4834 129.299 10.5065 129.298 10.5296V11.163C129.299 11.1863 129.296 11.2096 129.287 11.2314C129.279 11.2532 129.266 11.273 129.25 11.2895C129.233 11.306 129.213 11.3189 129.191 11.3271C129.169 11.3354 129.145 11.339 129.122 11.3376H124.614V14.2636H129.827C129.851 14.2621 129.875 14.2656 129.897 14.2739C129.919 14.2822 129.939 14.2951 129.956 14.3117C129.972 14.3282 129.985 14.3482 129.994 14.3701C130.002 14.3921 130.005 14.4156 130.004 14.439" fill="#ADADAD"/>
<path d="M11.3333 22.6477C8.32989 22.6458 5.44987 21.4526 3.32517 19.3298C1.20047 17.207 0.00461709 14.328 0 11.3246C0.00461644 8.32105 1.2004 5.44195 3.32506 3.31892C5.44972 1.1959 8.32975 0.00230511 11.3333 0C14.3369 0.00230511 17.2169 1.1959 19.3415 3.31892C21.4662 5.44195 22.662 8.32105 22.6666 11.3246C22.662 14.328 21.4662 17.207 19.3415 19.3298C17.2168 21.4526 14.3368 22.6458 11.3333 22.6477ZM11.3333 0.871794C8.56085 0.873715 5.90234 1.97534 3.94109 3.93496C1.97984 5.89457 0.876026 8.55214 0.871794 11.3246C0.87449 14.0974 1.97787 16.7557 3.9395 18.7155C5.90112 20.6752 8.56051 21.776 11.3333 21.776C14.1061 21.776 16.7655 20.6752 18.7271 18.7155C20.6888 16.7557 21.7921 14.0974 21.7948 11.3246C21.7906 8.55214 20.6868 5.89457 18.7255 3.93496C16.7643 1.97534 14.1058 0.873715 11.3333 0.871794V0.871794Z" fill="#ADADAD"/>
<path d="M12.7642 20.8577C10.2759 20.8557 7.88992 19.8669 6.12972 18.1081C4.36953 16.3492 3.37885 13.964 3.375 11.4757C3.37885 8.98739 4.36953 6.60218 6.12972 4.84335C7.88992 3.08451 10.2759 2.09567 12.7642 2.09375C15.2525 2.09567 17.6385 3.08451 19.3987 4.84335C21.1589 6.60218 22.1496 8.98739 22.1534 11.4757C22.1496 13.964 21.1589 16.3492 19.3987 18.1081C17.6385 19.8669 15.2525 20.8557 12.7642 20.8577ZM12.7642 2.77085C10.4556 2.77277 8.24199 3.69032 6.609 5.32222C4.97602 6.95411 4.057 9.1671 4.05353 11.4757C4.05738 13.7841 4.97659 15.9967 6.60953 17.6283C8.24248 19.2599 10.4558 20.1772 12.7642 20.1791C15.0726 20.1772 17.2859 19.2599 18.9189 17.6283C20.5518 15.9967 21.471 13.7841 21.4749 11.4757C21.471 9.16735 20.5518 6.95472 18.9189 5.32314C17.2859 3.69156 15.0726 2.77422 12.7642 2.7723V2.77085Z" fill="#ADADAD"/>
<path d="M14.1951 19.0661C12.222 19.0646 10.3301 18.2805 8.93438 16.8858C7.53865 15.4912 6.75308 13.5999 6.75 11.6268C6.75308 9.65371 7.53865 7.76241 8.93438 6.36777C10.3301 4.97312 12.222 4.18904 14.1951 4.1875C16.1683 4.18865 18.0604 4.97262 19.4562 6.36734C20.8521 7.76206 21.6375 9.65359 21.6402 11.6268C21.6371 13.5999 20.8516 15.4912 19.4558 16.8858C18.0601 18.2805 16.1682 19.0646 14.1951 19.0661V19.0661ZM14.1951 4.67134C12.3502 4.67249 10.5811 5.40548 9.27606 6.70946C7.97098 8.01345 7.23651 9.78192 7.23382 11.6268C7.2369 13.4714 7.97156 15.2395 9.27659 16.5432C10.5816 17.8469 12.3505 18.5797 14.1951 18.5808C16.0398 18.5797 17.8086 17.8469 19.1136 16.5432C20.4187 15.2395 21.1533 13.4714 21.1564 11.6268C21.1537 9.78192 20.4192 8.01345 19.1141 6.70946C17.8091 5.40548 16.04 4.67249 14.1951 4.67134V4.67134Z" fill="#ADADAD"/>
<path d="M15.6338 17.276C14.176 17.2749 12.7781 16.6955 11.7468 15.6651C10.7155 14.6346 10.1351 13.2372 10.1328 11.7794C10.1347 10.3213 10.715 8.92346 11.7463 7.8927C12.7776 6.86194 14.1757 6.2824 15.6338 6.28125C17.0919 6.2824 18.49 6.86194 19.5213 7.8927C20.5526 8.92346 21.1329 10.3213 21.1348 11.7794C21.1325 13.2372 20.5521 14.6346 19.5208 15.6651C18.4896 16.6955 17.0917 17.2749 15.6338 17.276V17.276ZM15.6338 6.57185C14.2528 6.573 12.9286 7.12191 11.9518 8.09818C10.975 9.07444 10.4253 10.3983 10.4234 11.7794C10.4257 13.1601 10.9755 14.4836 11.9523 15.4596C12.9291 16.4355 14.253 16.9843 15.6338 16.9854C17.0146 16.9843 18.3385 16.4355 19.3153 15.4596C20.2921 14.4836 20.8419 13.1601 20.8442 11.7794C20.8423 10.3983 20.2927 9.07444 19.3159 8.09818C18.3391 7.12191 17.0148 6.573 15.6338 6.57185Z" fill="#ADADAD"/>
</svg>
